<svg width="180" height="150" viewBox="0 0 180 150" fill="none" xmlns="http://www.w3.org/2000/svg">
<path d="M74.7013 132.026V143H65.9219H83.4808M107.624 132.026V143H98.8448H118.599" stroke="#969696" stroke-width="5" stroke-linecap="round" stroke-linejoin="round"/>
<path d="M46.1681 46.4267C47.924 58.7179 37.1357 84.5 39.5835 94.7953C45.1357 125.5 79.091 132.839 94.455 132.108C131.768 132.108 139.136 103.5 140.547 94.7136C142.405 83.1483 131.768 59.5954 131.768 46.4251C131.768 31.062 122.988 7 90.0653 7C54.9475 7.00001 48.3629 31.0626 46.1681 46.4267Z" fill="#93C9FF" stroke="#93C9FF" stroke-width="10"/>
<path d="M90.0656 60.0541L98.845 51.2739C91.8215 42.4944 84.2126 47.6158 81.2861 51.2739L90.0656 60.0541Z" fill="#FE8D01" stroke="#FE8D01" stroke-width="5" stroke-linejoin="round"/>
<path d="M39.369 50.7922C47.5158 61.844 40.4889 103.457 16.6544 103.674C9.7927 95.3315 18.2735 54.9444 39.369 50.7922Z" fill="#63AAE1" stroke="#63AAE1" stroke-width="10"/>
<path d="M147.323 14.3976C131.988 21.6847 125.499 74.5925 144.98 79.1745C158.584 73.0578 163.275 22.3052 147.323 14.3976Z" fill="#63AAE1" stroke="#63AAE1" stroke-width="10"/>
<path d="M72.5063 35.4517C68.1169 35.4517 68.1173 42.037 72.5063 42.0362C76.8967 42.0355 76.8961 35.4517 72.5063 35.4517Z" fill="#020202" stroke="black" stroke-width="5"/>
<path d="M108.722 35.4517C104.332 35.4517 104.333 42.037 108.722 42.0362C113.112 42.0355 113.111 35.4517 108.722 35.4517Z" fill="#020202" stroke="black" stroke-width="5"/>
</svg>
