<svg width="32" height="32" viewBox="0 0 32 32" fill="none" xmlns="http://www.w3.org/2000/svg">
<g clip-path="url(#clip0_80_916)">
<path d="M23.7508 30.0028C23.6321 30.0655 23.6388 30.0908 23.7575 30.0308C23.7922 30.0159 23.8239 29.9947 23.8508 29.9682C23.8508 29.9468 23.8481 29.9495 23.7508 30.0028ZM23.9881 29.8775C23.9321 29.9215 23.9321 29.9242 24.0001 29.8895C24.0375 29.8708 24.0695 29.8495 24.0695 29.8428C24.0695 29.8175 24.0535 29.8242 23.9881 29.8775ZM24.1441 29.7828C24.0881 29.8268 24.0881 29.8295 24.1561 29.7948C24.1935 29.7762 24.2255 29.7548 24.2255 29.7482C24.2255 29.7228 24.2095 29.7295 24.1441 29.7828ZM24.3001 29.6895C24.2441 29.7335 24.2441 29.7362 24.3121 29.7015C24.3495 29.6828 24.3815 29.6615 24.3815 29.6548C24.3815 29.6295 24.3655 29.6362 24.3001 29.6895ZM24.5161 29.5495C24.4068 29.6188 24.3721 29.6655 24.4695 29.6122C24.5388 29.5722 24.6508 29.4868 24.6321 29.4842C24.5912 29.5017 24.5523 29.5236 24.5161 29.5495ZM14.9521 0.00817552C14.8828 0.0148422 14.6641 0.0361755 14.4668 0.0521755C9.9228 0.461509 5.66546 2.91351 2.96946 6.68284C1.47901 8.7517 0.51022 11.1499 0.145465 13.6735C0.0174648 14.5522 0.00146484 14.8122 0.00146484 16.0042C0.00146484 17.1962 0.0174648 17.4548 0.145465 18.3348C1.0148 24.3428 5.2908 29.3908 11.0895 31.2615C12.1281 31.5962 13.2228 31.8242 14.4668 31.9615C14.9521 32.0148 17.0468 32.0148 17.5321 31.9615C19.6801 31.7242 21.5015 31.1922 23.2961 30.2762C23.5708 30.1348 23.6241 30.0975 23.5868 30.0668C22.7102 28.9085 21.8417 27.7441 20.9815 26.5735L18.4228 23.1175L15.2175 18.3735C14.1517 16.7861 13.0757 15.2056 11.9895 13.6322C11.9775 13.6295 11.9641 15.7375 11.9588 18.3108C11.9495 22.8175 11.9468 22.9988 11.8895 23.1055C11.835 23.2301 11.7375 23.331 11.6148 23.3895C11.5148 23.4402 11.4268 23.4495 10.9548 23.4495H10.4135L10.2695 23.3588C10.1806 23.3028 10.1083 23.2241 10.0601 23.1308L9.9948 22.9895L10.0015 16.7188L10.0108 10.4455L10.1081 10.3242C10.1735 10.2473 10.2521 10.1828 10.3401 10.1335C10.4681 10.0708 10.5188 10.0642 11.0601 10.0642C11.6988 10.0642 11.8041 10.0895 11.9708 10.2708C13.2683 12.2018 14.555 14.1401 15.8308 16.0855C17.9081 19.2348 20.7468 23.5348 22.1428 25.6468L24.6761 29.4842L24.8041 29.4002C26.0231 28.5893 27.1284 27.6194 28.0908 26.5162C30.1068 24.2091 31.4142 21.3692 31.8561 18.3375C31.9841 17.4588 32.0001 17.1988 32.0001 16.0068C32.0001 14.8148 31.9841 14.5562 31.8561 13.6762C30.9868 7.66817 26.7108 2.62018 20.9121 0.749509C19.8285 0.404506 18.7125 0.170854 17.5815 0.0521755C17.2815 0.0215088 15.2135 -0.0131578 14.9548 0.0121755L14.9521 0.00817552ZM21.5015 9.68551C21.576 9.72298 21.6424 9.77495 21.6966 9.83836C21.7509 9.90178 21.792 9.97537 21.8175 10.0548C21.8428 10.1362 21.8481 11.8748 21.8428 15.7935L21.8335 21.4175L20.8415 19.8975L19.8468 18.3775V14.2895C19.8468 11.6468 19.8588 10.1615 19.8775 10.0895C19.9001 10.0064 19.9391 9.92868 19.9922 9.8609C20.0454 9.79312 20.1115 9.73666 20.1868 9.69484C20.3148 9.62951 20.3615 9.62284 20.8535 9.62284C21.3161 9.62284 21.3975 9.62951 21.5015 9.68551Z" fill="black"/>
</g>
<defs>
<clipPath id="clip0_80_916">
<rect width="32" height="32" fill="white"/>
</clipPath>
</defs>
</svg>
