<svg width="40" height="40" viewBox="0 0 40 40" fill="none" xmlns="http://www.w3.org/2000/svg">
<g clip-path="url(#clip0_80_836)">
<path d="M4.66001 5.43115C3.77701 5.43115 3.06201 6.14715 3.06201 7.02915V28.9302C3.06201 29.8132 3.77801 30.5282 4.66001 30.5282H5.59101L30.689 5.43115H4.66001Z" fill="#93C9FF"/>
<path d="M35.4628 5.43115H30.6888L5.59082 30.5292H35.4628C36.3458 30.5292 37.0608 29.8142 37.0608 28.9312V7.03015C37.0608 6.14715 36.3458 5.43115 35.4628 5.43115Z" fill="#93C9FF"/>
<path d="M24.8438 30.9219V29.2529H15.2798V30.9219C15.2798 32.5499 14.4498 34.0659 13.0778 34.9429L11.8968 35.6979C11.4428 35.9889 11.6478 36.6929 12.1878 36.6929H27.9358C28.4748 36.6929 28.6808 35.9889 28.2268 35.6979L27.0458 34.9429C25.6738 34.0659 24.8438 32.5499 24.8438 30.9219Z" fill="#8A94A0"/>
<path d="M27.89 35.5181H12.234C11.9098 35.5181 11.647 35.7809 11.647 36.1051C11.647 36.4293 11.9098 36.6921 12.234 36.6921H27.89C28.2142 36.6921 28.477 36.4293 28.477 36.1051C28.477 35.7809 28.2142 35.5181 27.89 35.5181Z" fill="#AFB7C0"/>
<path d="M4.66001 30.5294H35.463C36.346 30.5294 37.061 29.8134 37.061 28.9314V26.1934H3.06201V28.9314C3.06201 29.8144 3.77701 30.5294 4.66001 30.5294Z" fill="#AFB7C0"/>
</g>
<defs>
<clipPath id="clip0_80_836">
<rect width="40" height="40" fill="white"/>
</clipPath>
</defs>
</svg>
