<svg width="40" height="40" viewBox="0 0 40 40" fill="none" xmlns="http://www.w3.org/2000/svg">
<path d="M5.06334 23.6299L3.37549 2.53174H23.6297L21.9418 23.6299L13.5026 26.1616L5.06334 23.6299Z" fill="#1172B8"/>
<path d="M21.9422 4.21973H13.5029V24.8959L20.2543 22.7861L21.9422 4.21973Z" fill="#33AADD"/>
<path d="M16.4565 14.7687H8.01726L7.5953 11.8149L14.3467 9.70511H7.5953L7.17334 7.17334H20.2542L19.8322 10.1271L14.3467 12.2369H19.4103L18.5663 20.2542L13.5028 21.942L8.43923 20.2542L8.01726 16.0346H10.549L10.971 18.1444L13.5028 18.9883L16.0346 18.1444L16.4565 14.7687Z" fill="white"/>
<path d="M18.058 36.6245L16.3701 15.5264H36.6243L34.9365 36.6245L26.4972 39.1563L18.058 36.6245Z" fill="#E44D26"/>
<path d="M34.9368 17.2144H26.4976V37.8905L33.249 35.7807L34.9368 17.2144Z" fill="#F16529"/>
<path d="M21.0119 27.7634L20.168 19.7461H33.2488L32.8268 22.2779H22.6997L23.1217 25.2316H32.4049L31.561 33.2489L26.4974 34.9367L21.4339 33.2489L21.0119 29.0293H23.5437L23.9656 31.1391L26.4974 31.983L29.0292 31.1391L29.4511 27.7634H21.0119Z" fill="white"/>
</svg>
