<svg width="64" height="64" viewBox="0 0 64 64" fill="none" xmlns="http://www.w3.org/2000/svg">
<g clip-path="url(#clip0_96_61)">
<path d="M23.2438 49.4802C23.2438 49.4802 20.7838 50.9762 24.9538 51.4042C29.9738 52.0442 32.6478 51.9382 38.2038 50.8702C39.3205 51.554 40.5015 52.1268 41.7298 52.5802C29.2298 57.9242 13.4118 52.2602 23.2438 49.4802ZM21.6438 42.5342C21.6438 42.5342 18.9718 44.5642 23.1398 44.9942C28.5898 45.5282 32.8638 45.6342 40.2398 44.1402C40.9572 44.8677 41.8355 45.4165 42.8038 45.7422C27.7358 50.2302 10.8518 46.1682 21.6438 42.5342ZM51.1378 54.7142C51.1378 54.7142 52.9538 56.2102 49.1078 57.3862C41.9478 59.5262 19.0798 60.1662 12.6678 57.3862C10.4238 56.4262 14.6978 55.0362 16.0678 54.8222C17.4578 54.5022 18.2078 54.5022 18.2078 54.5022C15.7478 52.7922 1.85784 58.0282 11.1558 59.5222C36.6958 63.6902 57.7478 57.7062 51.1218 54.7142H51.1378ZM24.3998 35.2662C24.3998 35.2662 12.7518 38.0462 20.2318 39.0062C23.4378 39.4342 29.7418 39.3262 35.6198 38.9002C40.4278 38.4722 45.2398 37.6202 45.2398 37.6202C45.2398 37.6202 43.5298 38.3682 42.3538 39.1162C30.4938 42.2162 7.72984 40.8262 14.2498 37.6202C19.8058 34.9482 24.4018 35.2702 24.4018 35.2702L24.3998 35.2662ZM45.2398 46.9142C57.2078 40.7142 51.6518 34.7342 47.8038 35.4802C46.8438 35.6942 46.4138 35.9082 46.4138 35.9082C46.4138 35.9082 46.7338 35.2682 47.4818 35.0542C55.0698 32.3822 61.0538 43.0682 45.0218 47.2342C45.0218 47.2342 45.1278 47.1282 45.2358 46.9142H45.2398ZM25.5798 63.7982C37.1198 64.5462 54.7538 63.3702 55.1798 57.9182C55.1798 57.9182 54.3258 60.0582 45.6698 61.6582C35.8378 63.4742 23.6558 63.2582 16.4958 62.0862C16.4958 62.0862 17.9918 63.3682 25.5798 63.7982Z" fill="#4E7896"/>
<path d="M37.9918 0.00195312C37.9918 0.00195312 44.6178 6.73395 31.6878 16.886C21.3218 25.114 29.3378 29.816 31.6878 35.16C25.5958 29.71 21.2158 24.9 24.2078 20.414C28.5878 13.786 40.6638 10.6 37.9918 0.00195312ZM34.5918 30.672C37.6918 34.198 33.7378 37.404 33.7378 37.404C33.7378 37.404 41.6458 33.344 38.0118 28.32C34.6998 23.512 32.1318 21.16 46.0258 13.146C46.0258 13.146 24.1198 18.596 34.5918 30.672Z" fill="#F58219"/>
</g>
<defs>
<clipPath id="clip0_96_61">
<rect width="64" height="64" fill="white"/>
</clipPath>
</defs>
</svg>
