<svg width="40" height="40" viewBox="0 0 40 40" fill="none" xmlns="http://www.w3.org/2000/svg">
<path d="M16.6572 32.9907V35.4907H14.6572H18.6572M24.1572 32.9907V35.4907H22.1572H26.6572" stroke="#969696" stroke-linecap="round" stroke-linejoin="round"/>
<path d="M10.1572 13.4909C10.5572 16.2909 9.49056 22.5095 8.65723 24.5095C9.15723 31.4909 17.6572 33.176 21.1572 33.0095C29.6572 33.0095 32.6572 25.4909 31.6572 24.4909C30.0761 22.9097 29.6572 16.4908 29.6572 13.4905C29.6572 9.99072 27.6572 4.50928 20.1572 4.50928C12.1572 4.50928 10.6572 9.99086 10.1572 13.4909Z" fill="#93C9FF" stroke="#93C9FF"/>
<path d="M20.1572 16.5952L22.1572 14.595C20.5572 12.595 18.8239 13.7617 18.1572 14.595L20.1572 16.5952Z" fill="#FE8D01" stroke="#FE8D01" stroke-linejoin="round"/>
<path d="M9.33916 13.9907C9.33916 17.4907 9.65723 26.4907 4.32016 25.4907C3.15347 23.3241 2.83919 15.9907 9.33916 13.9907Z" fill="#63AAE1" stroke="#63AAE1"/>
<path d="M30.6608 13.9907C30.6608 17.4907 30.3428 26.4907 35.6798 25.4907C36.8465 23.3241 37.1608 15.9907 30.6608 13.9907Z" fill="#63AAE1" stroke="#63AAE1"/>
<path d="M11.1672 8.58764C11.5672 7.38764 13.0005 6.42098 13.6672 6.08764C15.6674 5.08764 25.667 5.58764 26.667 6.08764C27.0832 6.29575 27.4128 6.67708 27.6919 7.08744C28.1836 6.42071 29.267 5.18728 29.667 5.58744C30.067 5.9876 28.5169 6.75417 27.6919 7.08744C28.5169 6.92076 30.167 6.6874 30.167 7.0874C30.167 7.4874 28.5169 7.25409 27.6919 7.08744C28.0833 7.66304 28.3753 8.29575 28.6672 8.58764C29.1672 9.08764 10.6672 10.0876 11.1672 8.58764Z" fill="#FF6060"/>
<path d="M27.6919 7.08744C28.0833 7.66304 28.3753 8.29575 28.6672 8.58764C29.1672 9.08764 10.6672 10.0876 11.1672 8.58764C11.5672 7.38764 13.0005 6.42098 13.6672 6.08764C15.6674 5.08764 25.667 5.58764 26.667 6.08764C27.0832 6.29575 27.4128 6.67708 27.6919 7.08744ZM27.6919 7.08744C28.1836 6.42071 29.267 5.18728 29.667 5.58744C30.067 5.9876 28.5169 6.75417 27.6919 7.08744ZM27.6919 7.08744C28.5169 6.92076 30.167 6.6874 30.167 7.0874C30.167 7.4874 28.5169 7.25409 27.6919 7.08744Z" stroke="#FF6060" stroke-linecap="round" stroke-linejoin="round"/>
<path d="M23.1572 12.5874L24.1572 12.0093M16.6572 12.5874L15.1572 12.0093" stroke="black" stroke-linecap="round" stroke-linejoin="round"/>
</svg>
