<svg width="34" height="32" viewBox="0 0 34 32" fill="none" xmlns="http://www.w3.org/2000/svg">
<path d="M13.5 28.9814V31.4814H11.5H15.5M21 28.9814V31.4814H19H23.5" stroke="#969696" stroke-linecap="round" stroke-linejoin="round"/>
<path d="M7 9.48158C7.4 12.2816 6.33333 18.5002 5.5 20.5002C6 27.4816 14.5 29.1667 18 29.0002C26.5 29.0002 29.5 21.4816 28.5 20.4816C26.9189 18.9004 26.5 12.4815 26.5 9.48123C26.5 5.98145 24.5 0.5 17 0.5C9 0.500003 7.5 5.98158 7 9.48158Z" fill="#93C9FF" stroke="#93C9FF"/>
<path d="M17 12.5859L19 10.5857C17.4 8.58575 15.6667 9.75242 15 10.5857L17 12.5859Z" fill="#FE8D01" stroke="#FE8D01" stroke-linejoin="round"/>
<path d="M6.18194 9.98145C6.18194 13.4814 6.5 22.4814 1.16293 21.4814C-0.00375366 19.3148 -0.318035 11.9814 6.18194 9.98145Z" fill="#63AAE1" stroke="#63AAE1"/>
<path d="M27.5036 9.98145C27.5036 13.4814 27.1855 22.4814 32.5226 21.4814C33.6893 19.3148 34.0036 11.9814 27.5036 9.98145Z" fill="#63AAE1" stroke="#63AAE1"/>
<path d="M12.9999 6.98145C12 6.98145 12.0001 8.48161 12.9999 8.48145C14.0001 8.48128 13.9999 6.98145 12.9999 6.98145Z" fill="#020202" stroke="black"/>
<path d="M21.2499 6.98145C20.25 6.98145 20.2501 8.48161 21.2499 8.48145C22.2501 8.48128 22.2499 6.98145 21.2499 6.98145Z" fill="#020202" stroke="black"/>
</svg>
